HIERARCHY
ROOT root
{
	OFFSET 0.000000 0.000000 0.000000
	CHANNELS 6 Xposition Yposition Zposition Zrotation Yrotation Xrotation
	JOINT lhip
	{
		OFFSET 0.058581 -0.082280 -0.017664
		CHANNELS 3 Zrotation Yrotation Xrotation
		JOINT lknee
		{
			OFFSET 0.043451 -0.386469 0.008037
			CHANNELS 3 Zrotation Yrotation Xrotation
			JOINT lankle
			{
				OFFSET -0.014790 -0.426874 -0.037428
				CHANNELS 3 Zrotation Yrotation Xrotation
				JOINT ltoe
				{
					OFFSET 0.041054 -0.060286 0.122042
					CHANNELS 3 Zrotation Yrotation Xrotation
					End Site
					{
						OFFSET 0.000000 0.000000 0.000000
					}
				}
			}
		}
	}
	JOINT rhip
	{
		OFFSET -0.060310 -0.090513 -0.013543
		CHANNELS 3 Zrotation Yrotation Xrotation
		JOINT rknee
		{
			OFFSET -0.043257 -0.383688 -0.004843
			CHANNELS 3 Zrotation Yrotation Xrotation
			JOINT rankle
			{
				OFFSET 0.019056 -0.420046 -0.034562
				CHANNELS 3 Zrotation Yrotation Xrotation
				JOINT rtoe
				{
					OFFSET -0.034840 -0.062106 0.130323
					CHANNELS 3 Zrotation Yrotation Xrotation
					End Site
					{
						OFFSET 0.000000 0.000000 0.000000
					}
				}
			}
		}
	}
	JOINT lowerback
	{
		OFFSET 0.004439 0.124404 -0.038385
		CHANNELS 3 Zrotation Yrotation Xrotation
		JOINT upperback
		{
			OFFSET 0.004488 0.137956 0.026820
			CHANNELS 3 Zrotation Yrotation Xrotation
			JOINT chest
			{
				OFFSET -0.002265 0.056032 0.002855
				CHANNELS 3 Zrotation Yrotation Xrotation
				JOINT lowerneck
				{
					OFFSET -0.013390 0.211636 -0.033468
					CHANNELS 3 Zrotation Yrotation Xrotation
					JOINT upperneck
					{
						OFFSET 0.010113 0.088937 0.050410
						CHANNELS 3 Zrotation Yrotation Xrotation
						End Site
						{
							OFFSET 0.000000 0.000000 0.000000
						}
					}
				}
				JOINT lclavicle
				{
					OFFSET 0.071702 0.114000 -0.018898
					CHANNELS 3 Zrotation Yrotation Xrotation
					JOINT lshoulder
					{
						OFFSET 0.122921 0.045205 -0.019046
						CHANNELS 3 Zrotation Yrotation Xrotation
						JOINT lelbow
						{
							OFFSET 0.255332 -0.015649 -0.022946
							CHANNELS 3 Zrotation Yrotation Xrotation
							JOINT lwrist
							{
								OFFSET 0.265709 0.012698 -0.007375
								CHANNELS 3 Zrotation Yrotation Xrotation
								End Site
								{
									OFFSET 0.000000 0.000000 0.000000
								}
							}
						}
					}
				}
				JOINT rclavicle
				{
					OFFSET -0.082954 0.112472 -0.023707
					CHANNELS 3 Zrotation Yrotation Xrotation
					JOINT rshoulder
					{
						OFFSET -0.113228 0.046853 -0.008472
						CHANNELS 3 Zrotation Yrotation Xrotation
						JOINT relbow
						{
							OFFSET -0.260127 -0.014369 -0.031269
							CHANNELS 3 Zrotation Yrotation Xrotation
							JOINT rwrist
							{
								OFFSET -0.269108 0.006794 -0.006027
								CHANNELS 3 Zrotation Yrotation Xrotation
								End Site
								{
									OFFSET 0.000000 0.000000 0.000000
								}
							}
						}
					}
				}
			}
		}
	}
}
MOTION
Frames: 10
Frame Time: 0.033333
0.030862 0.490540 1.006127 178.363053 -1.362398 82.533857 5.333674 1.044463 4.885564 -5.109954 -7.855440 8.767321 -5.556513 11.872053 -8.527540 0.000000 -0.000000 0.000000 -4.568099 -5.470922 5.182306 2.832420 3.617194 10.364926 5.359425 -12.269179 -9.660680 0.000000 -0.000000 0.000000 -0.199308 0.612764 4.907096 0.456077 -4.969677 -2.205267 1.674436 1.045500 -1.673553 1.260489 0.104856 -0.437714 4.165008 -0.102671 1.928619 15.476907 -28.893038 -21.632011 25.378025 -35.576265 -30.099499 21.730733 -37.665526 -53.534980 10.101303 -28.373324 -67.991682 -18.835748 30.759402 -22.770635 -31.108732 37.117117 -38.019902 -18.749724 30.731247 -39.340800 6.539238 27.218219 -42.883626 
0.030848 0.490906 1.006299 178.456125 -1.380348 82.567448 5.317401 1.043910 4.942729 -5.097020 -7.941725 8.601736 -5.613367 11.882755 -8.488467 0.000000 -0.000000 0.000000 -4.594277 -5.524969 5.235317 2.825793 3.596761 10.254071 5.376273 -12.298937 -9.623192 0.000000 -0.000000 0.000000 -0.196612 0.599618 4.842908 0.509194 -4.964580 -2.251175 1.732873 1.086773 -1.623327 1.250633 0.128887 -0.606626 4.086441 -0.051234 1.496710 15.858859 -28.706476 -21.879062 25.825225 -35.491637 -30.264753 22.057173 -37.940644 -53.780650 10.287739 -28.458614 -68.037307 -19.169867 30.740027 -23.010265 -31.625102 37.047476 -38.390582 -18.768464 30.678359 -39.499944 6.396824 27.217381 -43.024841 
0.030768 0.491420 1.006543 178.518800 -1.406946 82.586456 5.285705 1.055248 4.979813 -5.103349 -8.037645 8.525998 -5.644725 11.913082 -8.492890 0.000000 -0.000000 0.000000 -4.658448 -5.562812 5.322242 2.850635 3.567954 10.108239 5.434000 -12.306464 -9.574181 0.000000 -0.000000 0.000000 -0.149481 0.619235 4.776036 0.499460 -4.933956 -2.259368 1.763695 1.170244 -1.642300 1.193463 0.020114 -0.723602 4.248762 -0.042180 1.002274 16.301822 -28.680790 -22.159584 26.077608 -35.357994 -30.305278 22.575292 -38.196669 -54.109322 10.357011 -28.158312 -68.014569 -19.632518 30.680488 -23.386415 -31.699843 36.945858 -38.557802 -18.894502 30.713264 -39.709224 6.384045 27.135373 -43.055767 
0.030660 0.491908 1.006754 178.558981 -1.467336 82.599925 5.188743 1.029015 5.039962 -5.071074 -8.106094 8.435009 -5.642202 11.952034 -8.443546 0.000000 -0.000000 0.000000 -4.722993 -5.594817 5.354096 2.820197 3.591238 10.110613 5.468204 -12.304179 -9.606763 0.000000 -0.000000 0.000000 -0.090786 0.717543 4.699192 0.436167 -4.889584 -2.286774 1.788729 1.182832 -1.630280 1.184633 -0.051769 -0.842031 4.377682 -0.003723 0.568887 16.786957 -28.510747 -22.533950 26.350030 -35.442402 -30.648920 22.730312 -38.239453 -54.289786 10.251857 -28.021298 -67.892197 -20.059450 30.524602 -23.676401 -31.735911 36.911174 -38.736220 -19.079356 30.751359 -39.934404 6.581165 27.081897 -42.990790 
0.030469 0.492390 1.006809 178.662631 -1.494481 82.630291 5.130755 0.984212 5.051613 -5.054833 -8.180703 8.380476 -5.707343 11.947303 -8.394005 0.000000 -0.000000 0.000000 -4.750363 -5.552436 5.367366 2.809614 3.547293 10.112723 5.543221 -12.363578 -9.642543 0.000000 -0.000000 0.000000 -0.041290 0.725392 4.630046 0.453870 -4.890102 -2.376440 1.799115 1.224082 -1.579799 1.159461 0.009307 -1.014637 4.419641 -0.078095 0.086834 17.294343 -28.342444 -22.795556 26.677640 -35.366187 -30.886321 22.872317 -38.060960 -54.383653 9.989841 -28.219935 -67.751566 -20.430248 30.417484 -23.857619 -31.981284 36.815826 -38.903407 -19.208951 30.789628 -40.095241 6.485215 27.147941 -43.120928 
0.030400 0.492874 1.006851 178.767244 -1.504273 82.622269 5.089619 0.974634 5.113124 -4.996684 -8.284022 8.326076 -5.744878 11.943170 -8.417035 0.000000 -0.000000 0.000000 -4.750250 -5.537283 5.456919 2.765140 3.496603 10.017775 5.608511 -12.409657 -9.603612 0.000000 -0.000000 0.000000 -0.062165 0.700497 4.676899 0.525685 -4.905815 -2.500427 1.931988 1.275971 -1.521203 1.087169 0.130758 -1.198099 4.297489 0.005448 -0.558710 17.589742 -28.174377 -23.060231 27.053462 -35.260092 -31.011788 23.148112 -38.029161 -54.745407 10.190127 -28.209288 -67.618253 -20.549651 30.378387 -24.066733 -32.612549 36.868833 -39.120867 -19.106776 30.857724 -40.147780 6.207184 27.092933 -43.216467 
0.030414 0.493341 1.006889 178.931999 -1.507407 82.691458 5.072855 0.921971 5.032474 -4.995289 -8.392128 8.339268 -5.847256 11.942780 -8.430577 0.000000 -0.000000 0.000000 -4.738030 -5.564086 5.465901 2.762880 3.453357 9.938512 5.570970 -12.488288 -9.645419 0.000000 -0.000000 0.000000 -0.044073 0.704495 4.606421 0.547255 -4.956406 -2.641773 2.012100 1.317068 -1.508064 1.077461 0.122672 -1.357888 4.338982 -0.082146 -0.926307 17.913803 -28.081040 -23.235368 27.309201 -35.142986 -31.275628 23.462016 -37.874807 -55.287069 9.969347 -27.936890 -67.559631 -20.828091 30.303197 -24.263309 -32.721152 36.893642 -39.249609 -19.082255 30.875155 -40.345320 5.932933 27.194062 -43.540108 
0.030417 0.493810 1.007004 179.090855 -1.519017 82.734522 5.049714 0.877407 5.005768 -4.982988 -8.459099 8.307573 -5.887767 11.920609 -8.382891 0.000000 -0.000000 0.000000 -4.743899 -5.554054 5.506355 2.756611 3.355538 9.858876 5.586219 -12.540036 -9.661737 0.000000 -0.000000 0.000000 -0.033081 0.705527 4.582895 0.576668 -4.965383 -2.742942 2.044874 1.330364 -1.497884 1.055743 0.198581 -1.607225 4.365811 -0.079628 -1.359330 18.211313 -27.903519 -23.480403 27.546582 -35.069967 -31.574885 23.581031 -37.720463 -55.344039 10.021838 -27.910335 -67.603774 -21.038877 30.196163 -24.439907 -32.673882 36.902702 -39.332695 -19.557517 31.037818 -40.771172 5.502629 27.159897 -43.813030 
0.030448 0.494304 1.007094 179.145955 -1.525475 82.768947 5.036119 0.881642 5.058258 -4.947055 -8.517103 8.180298 -5.924526 11.914144 -8.410944 0.000000 -0.000000 0.000000 -4.768912 -5.567681 5.520755 2.775901 3.300513 9.831474 5.616734 -12.508297 -9.653468 0.000000 -0.000000 0.000000 -0.017380 0.736759 4.506497 0.615276 -4.926568 -2.752555 2.079065 1.413018 -1.471325 1.047610 0.249939 -1.693923 4.462245 -0.146646 -1.902384 18.455573 -27.683437 -23.734085 27.706927 -34.937673 -31.630431 23.865192 -37.898312 -55.687769 10.153269 -27.569685 -67.584782 -21.137305 30.131098 -24.573188 -32.837632 36.895909 -39.640521 -19.946873 31.112536 -41.181746 5.318982 26.891930 -43.530890 
0.030475 0.494717 1.007257 179.155935 -1.530037 82.866582 5.016213 0.882127 5.031293 -4.894390 -8.503326 8.090058 -5.889828 11.913154 -8.353596 0.000000 -0.000000 0.000000 -4.777514 -5.563622 5.491667 2.789299 3.264639 9.728611 5.627410 -12.482144 -9.622600 0.000000 -0.000000 0.000000 0.040363 0.740032 4.454752 0.653619 -4.831552 -2.896088 2.130357 1.518587 -1.540426 0.962657 0.203253 -1.872299 4.414607 -0.113036 -1.932107 18.666368 -27.549882 -23.894499 27.601881 -34.827833 -31.696005 24.394610 -37.997226 -56.094003 9.875144 -27.575422 -67.736329 -21.362862 30.144393 -24.702786 -32.745137 36.869976 -39.710967 -20.393239 31.114227 -41.635106 5.453767 26.809771 -43.625145 
